<svg width="32" height="32" viewBox="0 0 32 32" fill="none" xmlns="http://www.w3.org/2000/svg">
<path d="M6.254 12C5.13904 12 4.58067 13.3483 5.36906 14.1368L9.9588 18.7274C12.8067 21.5758 14.2306 23 16 23C17.7694 23 19.1934 21.5758 22.0412 18.7274L26.6309 14.1368C27.4193 13.3483 26.861 12 25.746 12C25.4141 12 25.0958 12.1319 24.861 12.3666L20.2713 16.9572C18.7974 18.4314 17.8662 19.3553 17.0979 19.9416C16.3874 20.4837 16.1174 20.4965 16 20.4965C15.8826 20.4965 15.6126 20.4837 14.9021 19.9416C14.1338 19.3553 13.2026 18.4314 11.7287 16.9572L7.13894 12.3666C6.90425 12.1319 6.58592 12 6.254 12Z" fill="#1D2023"/>
</svg>