<svg width="45" height="44" viewBox="0 0 45 44" fill="none" xmlns="http://www.w3.org/2000/svg">
<g clip-path="url(#clip0_13_4915)">
<path d="M25.643 14.6581C25.643 12.9726 24.2227 11.602 22.4765 11.602C20.7318 11.602 19.3101 12.9726 19.3101 14.6581C19.3101 16.3423 20.7318 17.7138 22.4765 17.7138C24.2227 17.7138 25.643 16.3423 25.643 14.6581Z" fill="#BBC1C7"/>
<path fill-rule="evenodd" clip-rule="evenodd" d="M0.694233 16.9231C1.17017 10.5282 1.40814 7.3308 4.61752 4.12142C7.8269 0.912045 11.0243 0.674076 17.4192 0.198137C19.077 0.0747617 20.787 0 22.497 0C24.207 0 25.917 0.074763 27.5747 0.198139C33.9696 0.67408 37.1671 0.912051 40.3765 4.12143C43.5858 7.3308 43.8238 10.5282 44.2997 16.9231C44.4231 18.5808 44.4979 20.2909 44.4979 22.0009C44.4979 23.7109 44.4231 25.4209 44.2997 27.0787C43.8238 33.4735 43.5858 36.671 40.3765 39.8804C37.1671 43.0897 33.9696 43.3277 27.5748 43.8037C25.917 43.927 24.207 44.0018 22.497 44.0018C20.787 44.0018 19.077 43.927 17.4192 43.8036C11.0243 43.3277 7.82689 43.0897 4.61751 39.8804C1.40814 36.671 1.17017 33.4735 0.694231 27.0786C0.570855 25.4209 0.496094 23.7109 0.496094 22.0009C0.496094 20.2909 0.570857 18.5809 0.694233 16.9231ZM22.4786 22.0378C26.697 22.0378 30.1262 18.7273 30.1262 14.6575C30.1262 10.5864 26.697 7.27496 22.4786 7.27496C18.2611 7.27496 14.8311 10.5864 14.8311 14.6575C14.8311 18.7273 18.2611 22.0378 22.4786 22.0378ZM25.5905 28.0613C27.1472 27.719 28.6485 27.1245 30.0313 26.2861C31.0778 25.6492 31.3931 24.314 30.7337 23.3038C30.0748 22.2914 28.6924 21.9867 27.6441 22.6236C24.5115 24.5251 20.4784 24.5246 17.3476 22.6236C16.2993 21.9867 14.9165 22.2914 14.259 23.3038C13.5996 24.3148 13.9139 25.6492 14.9604 26.2861C16.3432 27.1236 17.8446 27.719 19.4013 28.0613L15.1256 32.1885C14.2516 33.0331 14.2516 34.4023 15.1265 35.2469C15.5644 35.6687 16.1373 35.8798 16.7102 35.8798C17.284 35.8798 17.8578 35.6687 18.2957 35.2469L22.4954 31.1912L26.6988 35.2469C27.5727 36.0914 28.9908 36.0914 29.8657 35.2469C30.7415 34.4023 30.7415 33.0322 29.8657 32.1885L25.5905 28.0613Z" fill="#BBC1C7"/>
</g>
<defs>
<clipPath id="clip0_13_4915">
<rect width="44" height="44" fill="white" transform="translate(0.5)"/>
</clipPath>
</defs>
</svg>
