<svg width="64" height="64" viewBox="0 0 64 64" fill="none" xmlns="http://www.w3.org/2000/svg">
<rect width="64" height="64" rx="12" fill="#FF0032"/>
<path fill-rule="evenodd" clip-rule="evenodd" d="M15.2852 24.5C15.2852 23.6716 15.8792 23 16.6121 23H48.4582C49.191 23 49.7852 23.6716 49.7852 24.5C49.7852 25.3284 49.191 26 48.4582 26H16.6121C15.8792 26 15.2852 25.3284 15.2852 24.5ZM15.2852 32.5C15.2852 31.6716 15.8792 31 16.6121 31H28.9967C29.7295 31 30.3236 31.6716 30.3236 32.5C30.3236 33.3284 29.7295 34 28.9967 34H16.6121C15.8792 34 15.2852 33.3284 15.2852 32.5ZM15.2852 40.5C15.2852 39.6716 15.8792 39 16.6121 39H28.9967C29.7295 39 30.3236 39.6716 30.3236 40.5C30.3236 41.3284 29.7295 42 28.9967 42H16.6121C15.8792 42 15.2852 41.3284 15.2852 40.5Z" fill="white"/>
<path d="M47.8196 30.7143C48.4523 31.2078 48.5651 32.1209 48.0716 32.7537L40.5154 42.4412C40.2457 42.787 39.8343 42.9924 39.3959 43.0004C38.9574 43.0083 38.5389 42.8179 38.2568 42.4821L34.1881 37.6383C33.6719 37.024 33.7518 36.1073 34.3661 35.5912C34.9807 35.0748 35.8973 35.1547 36.4135 35.769L39.3277 39.2385L45.7799 30.9664C46.2736 30.3336 47.1868 30.2206 47.8196 30.7143Z" fill="white"/>
</svg>
