<svg width="64" height="64" viewBox="0 0 64 64" fill="none" xmlns="http://www.w3.org/2000/svg">
<rect width="64" height="64" rx="12" fill="#FF0032"/>
<path d="M17 38C17 33.7574 17 31.6361 18.318 30.3181C19.636 29 21.7574 29 26 29H38C42.2426 29 44.3639 29 45.6819 30.3181C47 31.6361 47 33.7574 47 38C47 42.2426 47 44.3639 45.6819 45.6819C44.3639 47 42.2426 47 38 47H26C21.7574 47 19.636 47 18.318 45.6819C17 44.3639 17 42.2426 17 38Z" stroke="white" stroke-width="3"/>
<path d="M23 29V26C23 21.0294 27.0294 17 32 17C36.1937 17 39.7173 19.8682 40.7165 23.75" stroke="white" stroke-width="3" stroke-linecap="round"/>
</svg>
