<svg width="45" height="44" viewBox="0 0 45 44" fill="none" xmlns="http://www.w3.org/2000/svg">
<g clip-path="url(#clip0_13_4909)">
<path fill-rule="evenodd" clip-rule="evenodd" d="M0.694233 16.9248C1.17017 10.53 1.40814 7.3325 4.61752 4.12313C7.8269 0.913754 11.0243 0.675785 17.4192 0.199846C19.077 0.0764707 20.787 0.00170898 22.497 0.00170898C24.207 0.00170898 25.917 0.076472 27.5747 0.199848C33.9696 0.675789 37.1671 0.91376 40.3765 4.12314C43.5858 7.33251 43.8238 10.53 44.2997 16.9249C44.4231 18.5826 44.4979 20.2926 44.4979 22.0026C44.4979 23.7126 44.4231 25.4226 44.2997 27.0804C43.8238 33.4753 43.5858 36.6727 40.3765 39.8821C37.1671 43.0915 33.9696 43.3294 27.5747 43.8054C25.917 43.9287 24.207 44.0035 22.497 44.0035C20.787 44.0035 19.077 43.9287 17.4192 43.8054C11.0243 43.3294 7.82689 43.0914 4.61751 39.8821C1.40814 36.6727 1.17017 33.4752 0.694231 27.0803C0.570855 25.4226 0.496094 23.7126 0.496094 22.0026C0.496094 20.2926 0.570857 18.5826 0.694233 16.9248ZM29.7768 31.5191L33.4989 13.9655C33.8293 12.4176 32.943 11.8132 31.9299 12.1929L10.0489 20.6231C8.55652 21.2072 8.57854 22.0441 9.79518 22.4238L16.0393 24.7631L21.8354 20.5478C22.1835 20.2313 22.7223 20.257 23.0388 20.6051C23.3552 20.9532 23.3296 21.492 22.9815 21.8085L18.5761 25.8133L18.1751 31.4918C18.7592 31.4918 19.012 31.2389 19.3151 30.9359L22.0514 28.3035L27.7232 32.4829C28.7636 33.0661 29.4957 32.7577 29.7768 31.5191Z" fill="#BBC1C7"/>
</g>
<defs>
<clipPath id="clip0_13_4909">
<rect width="44" height="44" fill="white" transform="translate(0.5)"/>
</clipPath>
</defs>
</svg>
