<svg width="64" height="64" viewBox="0 0 64 64" fill="none" xmlns="http://www.w3.org/2000/svg">
<rect width="64" height="64" rx="12" fill="#FF0032"/>
<path fill-rule="evenodd" clip-rule="evenodd" d="M35.0748 18.4296C34.7859 18.1916 34.4003 18.1066 34.0382 18.2012C33.6761 18.2957 33.3813 18.5583 33.2456 18.9071L32.9817 19.5857C32.354 19.3772 31.6472 19.2445 30.9883 19.1694C30.0556 19.0631 29.0634 19.0551 28.3055 19.1829C27.9948 19.2354 27.7185 19.4113 27.5395 19.6706C27.3604 19.93 27.294 20.2507 27.3551 20.5598L27.9266 23.4477C27.7748 23.528 27.6286 23.6127 27.4878 23.7013L20.9798 19.3626C20.4896 19.0358 19.8326 19.1258 19.4483 19.5724C19.064 20.0191 19.0731 20.6822 19.4694 21.1181L24.6807 26.8506C24.4353 27.2895 24.2227 27.7201 24.0308 28.1152L23.9325 28.3181C23.5717 29.0625 23.3031 29.6169 23.0002 30.0255C22.0155 31.3546 20.7112 33.5702 19.8011 35.1717C18.8398 36.8631 19.0895 38.9556 20.3573 40.3963C21.8978 42.1469 24.5053 42.4661 26.4227 41.1387L29.0463 39.3225C28.801 39.8973 28.5343 40.5332 28.2654 41.1939C27.6528 42.6988 28.2003 44.1468 29.2084 45.0128C30.198 45.8628 31.6848 46.2127 33.0967 45.6281C35.6347 44.577 38.534 43.5856 41.0338 42.9625C42.8159 42.5182 44.4409 41.0978 44.6618 39.0508C45.1235 34.7734 44.4554 31.3069 43.211 28.3852C41.7276 24.9024 39.5721 22.135 35.0748 18.4296ZM30.7241 21.4877C31.2597 21.5487 31.7478 21.6466 32.1344 21.7644L31.8121 22.5932C31.2235 22.5866 30.6738 22.6273 30.1595 22.7117L29.9053 21.4269C30.1658 21.4357 30.4422 21.4556 30.7241 21.4877ZM32.1585 38.029L32.163 38.0188C33.0017 38.0563 33.8273 37.9613 34.6075 37.6819C35.9049 37.2171 36.9588 36.284 37.699 34.8762C37.9987 34.3058 37.7794 33.6004 37.2091 33.3007C36.6387 33.0009 35.9333 33.2202 35.6335 33.7905C35.1364 34.7363 34.5118 35.2376 33.8207 35.4852C33.0989 35.7437 32.1871 35.766 31.0797 35.5264C30.7641 35.4581 30.4343 35.5237 30.1688 35.7074L25.0946 39.2203C24.1508 39.8736 22.8673 39.7165 22.1089 38.8548C21.481 38.1412 21.3733 37.1279 21.8298 36.3246C22.7472 34.7103 23.9865 32.6138 24.875 31.4147C25.317 30.8183 25.6848 30.056 26.0166 29.3685C26.0548 29.2894 26.0925 29.2113 26.1297 29.1346C26.5158 28.3396 26.9008 27.5862 27.4016 26.9267C27.8919 26.2808 28.4763 25.7495 29.2462 25.3979C30.0165 25.0461 31.0511 24.8382 32.4955 24.9616C33.0114 25.0056 33.4945 24.7045 33.6823 24.222L34.8271 21.278C38.2736 24.2898 39.9025 26.5717 41.0642 29.2995C42.1539 31.8579 42.7604 34.9237 42.342 38.8004C42.2489 39.6627 41.5267 40.4349 40.4695 40.6984C37.8375 41.3545 34.8273 42.3858 32.2039 43.4723C31.666 43.695 31.1029 43.564 30.7287 43.2427C30.3731 42.9373 30.2434 42.5235 30.4264 42.0737C30.9058 40.8962 31.3791 39.7958 31.7329 38.989C31.9096 38.586 32.0562 38.257 32.1585 38.029ZM30.8246 31.4154C31.8376 31.4154 32.6589 30.5928 32.6589 29.578C32.6589 28.5633 31.8376 27.7407 30.8246 27.7407C29.8116 27.7407 28.9905 28.5633 28.9905 29.578C28.9905 30.5928 29.8116 31.4154 30.8246 31.4154Z" fill="white"/>
</svg>
