<svg width="64" height="64" viewBox="0 0 64 64" fill="none" xmlns="http://www.w3.org/2000/svg">
<rect width="64" height="64" rx="12" fill="#FF0032"/>
<path d="M42.4997 30.501C42.1019 30.501 41.7204 30.3429 41.4391 30.0617C41.1578 29.7804 40.9998 29.3989 40.9998 29.0011C40.9998 28.1746 40.3278 27.5011 39.4998 27.5011H25.1212L27.0606 29.4405C27.3419 29.7218 27.4999 30.1032 27.4999 30.501C27.4999 30.8987 27.3419 31.2802 27.0606 31.5614C26.7794 31.8427 26.3979 32.0007 26.0002 32.0007C25.6024 32.0007 25.2209 31.8427 24.9397 31.5614L20.4398 27.0617C20.3004 26.9225 20.1898 26.7572 20.1143 26.5752C20.0388 26.3933 20 26.1982 20 26.0012C20 25.8042 20.0388 25.6092 20.1143 25.4272C20.1898 25.2452 20.3004 25.08 20.4398 24.9408L24.9397 20.441C25.0787 20.3013 25.2439 20.1903 25.4259 20.1147C25.6079 20.039 25.803 20 26.0002 20C26.1973 20 26.3924 20.039 26.5744 20.1147C26.7564 20.1903 26.9216 20.3013 27.0606 20.441C27.2 20.5802 27.3106 20.7455 27.3861 20.9275C27.4616 21.1094 27.5004 21.3045 27.5004 21.5015C27.5004 21.6985 27.4616 21.8935 27.3861 22.0755C27.3106 22.2574 27.2 22.4227 27.0606 22.5619L25.1212 24.5013H39.4998C41.9808 24.5013 43.9997 26.5202 43.9997 29.0011C43.9997 29.3989 43.8417 29.7804 43.5604 30.0617C43.2791 30.3429 42.8976 30.501 42.4997 30.501ZM21.5003 33.5008C21.8981 33.5008 22.2796 33.6588 22.5609 33.9401C22.8422 34.2214 23.0002 34.6029 23.0002 35.0007C23.0002 35.8272 23.6722 36.5006 24.5002 36.5006H38.8788L36.9394 34.5612C36.8001 34.422 36.6896 34.2567 36.6143 34.0747C36.5389 33.8928 36.5001 33.6977 36.5001 33.5008C36.5001 33.3039 36.5389 33.1088 36.6143 32.9269C36.6896 32.7449 36.8001 32.5796 36.9394 32.4404C37.0786 32.3011 37.244 32.1906 37.4259 32.1153C37.6079 32.0399 37.8029 32.0011 37.9999 32.0011C38.1968 32.0011 38.3918 32.0399 38.5738 32.1153C38.7557 32.1906 38.9211 32.3011 39.0603 32.4404L43.5602 36.9401C43.6996 37.0793 43.8102 37.2446 43.8857 37.4265C43.9612 37.6085 44 37.8036 44 38.0006C44 38.1975 43.9612 38.3926 43.8857 38.5746C43.8102 38.7565 43.6996 38.9218 43.5602 39.061L39.0603 43.5607C38.9211 43.7 38.7557 43.8105 38.5738 43.8858C38.3918 43.9612 38.1968 44 37.9999 44C37.8029 44 37.6079 43.9612 37.4259 43.8858C37.244 43.8105 37.0786 43.7 36.9394 43.5607C36.8001 43.4215 36.6896 43.2562 36.6143 43.0742C36.5389 42.8923 36.5001 42.6972 36.5001 42.5003C36.5001 42.3034 36.5389 42.1084 36.6143 41.9264C36.6896 41.7445 36.8001 41.5791 36.9394 41.4399L38.8788 39.5005H24.5002C22.0193 39.5005 20.0003 37.4816 20.0003 35.0007C20.0003 34.6029 20.1583 34.2214 20.4396 33.9401C20.7209 33.6588 21.1024 33.5008 21.5003 33.5008Z" fill="white"/>
</svg>
