<svg width="64" height="64" viewBox="0 0 64 64" fill="none" xmlns="http://www.w3.org/2000/svg">
<rect width="64" height="64" rx="12" fill="#FF0032"/>
<path fill-rule="evenodd" clip-rule="evenodd" d="M35.5 20.3334C39.366 20.3334 42.5 23.4674 42.5 27.3334C42.5 31.1115 39.5068 34.1905 35.7624 34.3285L35.5 34.3334H29.6667V36.6667H34.3333C34.9777 36.6667 35.5 37.189 35.5 37.8334C35.5 38.4777 34.9777 39 34.3333 39H29.6667V42.5C29.6667 43.1444 29.1443 43.6667 28.5 43.6667C27.8557 43.6667 27.3333 43.1444 27.3333 42.5V39H22.6667C22.0223 39 21.5 38.4777 21.5 37.8334C21.5 37.189 22.0223 36.6667 22.6667 36.6667H27.3333V34.3334H22.6667C22.0223 34.3334 21.5 33.811 21.5 33.1667C21.5 32.5684 21.9504 32.0753 22.5306 32.0079L22.6667 32H27.3333V21.5C27.3333 20.8557 27.8557 20.3334 28.5 20.3334H35.5ZM35.5 22.6667H29.6667V32H35.5C38.0773 32 40.1667 29.9107 40.1667 27.3334C40.1667 24.8341 38.202 22.7938 35.7329 22.6724L35.5 22.6667Z" fill="white"/>
</svg>
