<svg width="45" height="44" viewBox="0 0 45 44" fill="none" xmlns="http://www.w3.org/2000/svg">
<g clip-path="url(#clip0_13_4912)">
<path fill-rule="evenodd" clip-rule="evenodd" d="M4.62143 4.1224C1.41205 7.33177 1.17408 10.5292 0.698139 16.9241C0.574763 18.5818 0.5 20.2918 0.5 22.0019C0.5 23.7119 0.574762 25.4219 0.698137 27.0796C1.17408 33.4745 1.41204 36.672 4.62142 39.8813C7.83079 43.0907 11.0282 43.3287 17.4231 43.8046C19.0809 43.928 20.7909 44.0028 22.5009 44.0028C24.2109 44.0028 25.9209 43.928 27.5786 43.8046C33.9735 43.3287 37.171 43.0907 40.3804 39.8813C43.5897 36.672 43.8277 33.4745 44.3036 27.0796C44.427 25.4219 44.5018 23.7119 44.5018 22.0019C44.5018 20.2919 44.427 18.5818 44.3036 16.9241C43.8277 10.5292 43.5897 7.33178 40.3804 4.1224C37.171 0.913027 33.9735 0.675057 27.5786 0.199116C25.9209 0.0757395 24.2109 0.000976562 22.5009 0.000976562C20.7909 0.000976562 19.0809 0.0757382 17.4231 0.199113C11.0283 0.675052 7.8308 0.913021 4.62143 4.1224ZM8.5 14C8.72736 25.2433 14.1839 32 23.7504 32H24.2927V25.5675C27.808 25.9279 30.4661 28.5766 31.533 32H36.5C35.1359 26.8829 31.5504 24.054 29.3118 22.9729C31.5504 21.6396 34.6985 18.3964 35.4505 14H30.9382C29.9588 17.5676 27.0559 20.8108 24.2927 21.1171V14H19.7804V26.4684C16.9821 25.7477 13.4494 22.2523 13.292 14H8.5Z" fill="#BBC1C7"/>
</g>
<defs>
<clipPath id="clip0_13_4912">
<rect width="44" height="44" fill="white" transform="translate(0.5)"/>
</clipPath>
</defs>
</svg>
